<svg width="512" height="512" viewBox="0 0 512 512" fill="none" xmlns="http://www.w3.org/2000/svg">
<path fill-rule="evenodd" clip-rule="evenodd" d="M256 512C397.385 512 512 397.385 512 256C512 114.615 397.385 0 256 0C114.615 0 0 114.615 0 256C0 397.385 114.615 512 256 512ZM256 460C368.666 460 460 368.666 460 256C460 143.334 368.666 52 256 52C143.334 52 52 143.334 52 256C52 368.666 143.334 460 256 460ZM400.61 240.61C385.77 255.45 361.71 255.45 346.87 240.61C332.03 225.77 332.03 201.71 346.87 186.87C361.71 172.03 385.77 172.03 400.61 186.87C415.45 201.71 415.45 225.77 400.61 240.61ZM292.87 324.149C307.71 338.989 331.77 338.989 346.61 324.149C361.45 309.309 361.45 285.249 346.61 270.409C331.77 255.569 307.71 255.569 292.87 270.409C278.03 285.249 278.03 309.309 292.87 324.149ZM143 197C143 179.879 156.879 166 174 166C191.121 166 205 179.879 205 197V224H233C250.121 224 264 237.879 264 255C264 272.121 250.121 286 233 286H205V315C205 332.121 191.121 346 174 346C156.879 346 143 332.121 143 315V286H115C97.8792 286 84 272.121 84 255C84 237.879 97.8792 224 115 224H143V197Z" fill="#E71151"/>
</svg>
